<svg xmlns="http://www.w3.org/2000/svg" viewBox="0 0 380 96" role="img" aria-label="RieszReg">
  <title>RieszReg</title>
  <defs>
    <linearGradient id="grad-F" gradientUnits="userSpaceOnUse" x1="10" y1="0" x2="118" y2="0">
      <stop offset="0%" stop-color="#2d6cdf"/>
      <stop offset="100%" stop-color="#0d9488"/>
    </linearGradient>
  </defs>
  <!-- faint level-set lines of φ as a background hint (mark area only) -->
  <g stroke="#94a3b8" stroke-width="1" stroke-linecap="round" opacity="0.32">
    <line x1="6" y1="20" x2="120" y2="34"/>
    <line x1="6" y1="34" x2="120" y2="48"/>
    <line x1="6" y1="48" x2="120" y2="62"/>
    <line x1="6" y1="62" x2="120" y2="76"/>
    <line x1="6" y1="76" x2="120" y2="90"/>
  </g>
  <!-- regression curve through scatter -->
  <path d="M 10 60 Q 30 14 54 38 T 116 18" fill="none" stroke="url(#grad-F)"
        stroke-width="3" stroke-linecap="round"/>
  <g fill="url(#grad-F)">
    <circle cx="14" cy="64" r="2.5"/>
    <circle cx="24" cy="42" r="2.5"/>
    <circle cx="34" cy="28" r="2.5"/>
    <circle cx="46" cy="38" r="2.5"/>
    <circle cx="62" cy="36" r="2.5"/>
    <circle cx="76" cy="50" r="2.5"/>
    <circle cx="88" cy="42" r="2.5"/>
    <circle cx="102" cy="28" r="2.5"/>
    <circle cx="114" cy="22" r="2.5"/>
  </g>
  <circle cx="54" cy="38" r="4.25" fill="url(#grad-F)"/>
  <text x="61" y="32"
        font-family="'Latin Modern Math','STIX Two Math','Cambria Math',Georgia,serif"
        font-style="italic" font-size="20" fill="#0d9488">α</text>
  <text x="132" y="64"
        font-family="-apple-system,BlinkMacSystemFont,'Segoe UI',Roboto,'Helvetica Neue',system-ui,sans-serif"
        font-size="48" font-weight="600" letter-spacing="-0.75" fill="#1a1a1a">RieszReg</text>
</svg>
